<?xml version="1.0" standalone="no"?>
<!DOCTYPE svg PUBLIC "-//W3C//DTD SVG 20010904//EN"
 "http://www.w3.org/TR/2001/REC-SVG-20010904/DTD/svg10.dtd">
<svg version="1.0" xmlns="http://www.w3.org/2000/svg"
 width="50.000000pt" height="50.000000pt" viewBox="0 0 500.000000 500.000000"
 preserveAspectRatio="xMidYMid meet">

<g transform="translate(0.000000,500.000000) scale(0.100000,-0.100000)"
fill="#DD2E44" stroke="none">
<path d="M1385 4169 c-502 -51 -881 -272 -1036 -602 -57 -123 -73 -206 -74
-382 0 -142 3 -168 23 -230 39 -114 81 -184 164 -268 76 -76 77 -77 55 -91
-12 -8 -125 -76 -252 -151 -126 -76 -236 -142 -242 -147 -18 -15 94 -230 166
-321 171 -215 444 -358 815 -428 140 -27 482 -37 647 -20 262 28 507 103 684
210 37 23 69 40 71 39 1 -2 -29 -196 -67 -433 -37 -236 -69 -438 -69 -447 0
-17 37 -18 630 -18 l629 0 6 33 c3 17 26 162 51 321 25 159 47 293 50 298 3 4
194 8 425 8 230 0 419 2 419 4 0 2 29 185 65 406 36 221 65 404 65 406 0 2 41
4 90 4 52 0 90 4 90 10 0 5 36 235 80 511 44 276 80 508 80 515 0 12 -176 14
-1062 16 l-1063 3 48 29 47 28 -46 87 c-84 153 -123 208 -208 288 -166 157
-394 258 -696 308 -114 19 -456 28 -585 14z m522 -204 c185 -26 301 -62 458
-143 71 -36 108 -64 175 -132 47 -47 93 -99 102 -116 l17 -30 -249 -157 c-137
-86 -253 -157 -258 -157 -5 0 -19 12 -33 26 -64 70 -222 143 -351 164 -112 18
-307 9 -377 -18 -68 -26 -91 -48 -91 -83 0 -69 85 -101 393 -145 281 -41 341
-53 473 -94 163 -52 282 -126 359 -224 27 -34 39 -58 38 -80 -1 -17 -24 -179
-53 -361 l-51 -330 -65 -61 c-152 -143 -364 -233 -679 -290 -138 -24 -466 -25
-621 -1 -300 47 -542 154 -700 312 -56 55 -124 147 -124 166 0 4 122 80 270
169 l271 161 58 -53 c145 -135 412 -219 650 -205 127 8 204 29 243 67 66 67
13 135 -138 174 -32 8 -149 27 -259 41 -405 52 -614 121 -752 249 -105 97
-146 204 -147 381 -1 263 117 458 368 609 119 71 363 147 530 165 135 14 432
12 543 -4z m739 -692 c-3 -16 -10 -59 -16 -98 -20 -128 -11 -121 -84 -67 -35
26 -72 52 -81 57 -15 9 -4 20 76 72 52 34 98 62 102 62 5 1 6 -11 3 -26z
m2074 -68 c0 -15 -86 -570 -96 -617 l-6 -28 -511 -2 -511 -3 -18 -105 c-9 -58
-19 -117 -22 -132 l-5 -28 424 0 c234 0 425 -2 425 -5 0 -9 -80 -498 -86 -527
l-6 -28 -422 0 -422 0 -48 -307 c-26 -170 -50 -318 -53 -330 l-5 -23 -429 0
c-389 0 -429 2 -429 16 0 21 329 2105 335 2122 3 9 201 12 945 12 815 0 940
-2 940 -15z"/>
</g>
</svg>